 More AT:  http://wallpapers2012.com/

Show Summary: The gang tells Ted their real feelings about Zoey as he prepares to make a decision that could affect his future with her...

General:
Complete name : D:\How I Met Your Mother S06E23 HDTV XviD [ThumperRG]\How I Met Your Mother S06E23 HDTV XviD [ThumperRG].avi 
Format : AVI 
Format/Info : Audio Video Interleave 
File size : 175 MiB 
Duration : 21mn 7s 
Overall bit rate : 1 157 Kbps

Video:
ID : 0 
Format : MPEG-4 Visual 
Format profile : Advanced Simple@L5 
Format settings, BVOP : 2 
Format settings, QPel : No 
Format settings, GMC : No warppoints 
Format settings, Matrix : Default (H.263) 
Codec ID : XVID 
Codec ID/Hint : XviD 
Duration : 21mn 7s 
Bit rate : 1 012 Kbps 
Width : 624 pixels 
Height : 352 pixels 
Display aspect ratio : 16:9 
Frame rate : 23.976 fps 
Color space : YUV 
Chroma subsampling : 4:2:0 
Bit depth : 8 bits 
Scan type : Progressive 
Compression mode : Lossy 
Bits/(Pixel*Frame) : 0.192 
Stream size : 153 MiB (87%)

Audio: 
ID : 1 
Format : MPEG Audio 
Format version : Version 1 
Format profile : Layer 3 
Mode : Joint stereo 
Mode extension : MS Stereo 
Codec ID : 55 
Codec ID/Hint : MP3 
Duration : 21mn 7s 
Bit rate mode : Variable 
Bit rate : 128 Kbps 
Channel(s) : 2 channels 
Sampling rate : 48.0 KHz 
Compression mode : Lossy 
Stream size : 20.0 MiB (11%)

 More AT:  http://wallpapers2012.com/